<svg id="Layer_1" data-name="Layer 1" xmlns="http://www.w3.org/2000/svg" viewBox="0 0 201.14 137.5"><defs><style>.cls-1{fill:#45271a;}.cls-2{fill:#469187;}</style></defs><path class="cls-1" d="M67.77,112.36,61.05,87.79H32.43l-6.71,24.57H0L32.51,1.42H61L93.48,112.36ZM54.61,64.21,46.74,35.42,38.88,64.21Z"/><path class="cls-2" d="M6.73,107.32,36.29,6.46H57.2L86.75,107.32H71.61L47.39,18.68h-1.3L21.87,107.32Zm13.7-24.57V69.25H72.34v13.5Z"/><polygon class="cls-1" points="88.11 137.5 88.11 26.56 112.61 26.56 112.61 113.92 165.96 113.92 165.96 137.5 88.11 137.5"/><path class="cls-2" d="M93.15,132.46V31.6h14.42V132.46Zm0,0V119h67.77v13.5Z"/><path class="cls-1" d="M164.57,113.78c-16.73,0-29.57-5-38.17-14.7C118,89.5,113.67,75.26,113.67,56.75c0-17.62,4.43-31.58,13.15-41.51C135.72,5.13,148.22,0,164,0a54.61,54.61,0,0,1,20.72,3.68C191.06,6.27,195.85,10.08,199,15l2.18,3.44L183.2,36l-3.4-4.94a17.84,17.84,0,0,0-14.94-7.9c-8.19,0-14.32,2.63-18.74,8.05-4.6,5.65-6.94,14-6.94,24.84,0,12,2.34,20.89,6.94,26.54,4.42,5.42,11,8,20.18,8a52.4,52.4,0,0,0,7.5-.5V75.43H152.89V51.85h44.69v56.36L194,109.3c-2.17.66-5.77,1.54-11,2.7A87,87,0,0,1,164.57,113.78Z"/><path class="cls-2" d="M164.57,108.74q-22.93,0-34.39-13t-11.47-39q0-24.64,11.9-38.18T164,5a49.54,49.54,0,0,1,18.82,3.3q8.07,3.3,11.89,9.34L184,28.2a22.91,22.91,0,0,0-19.1-10.09q-14.56,0-22.64,9.91t-8.08,28q0,19.82,8.08,29.72t24.08,9.91a49.57,49.57,0,0,0,12.07-1.31c3.49-.88,6.34-1.62,8.55-2.24l5.62,12.36q-3,.93-10.64,2.59A81.45,81.45,0,0,1,164.57,108.74Zm-6.64-38.35V56.89h34.18v13.5Zm20.91,34.09V56.89h13.7v47.59Z"/></svg>